# xmcd
#
# Track frame offsets: 
#        150
#        17639
#        35100
#        51934
#        72279
#        98009
#        114961
#        140523
#        162024
#        185246
#        206601
#        220140
#        238813
#
# Disc length: 3553 seconds
#
# Revision: 2
# Processed by: cddbd v1.5.2PL0 Copyright (c) Steve Scherf et al.
# Submitted via: ExactAudioCopy v1.0b4
#
DISCID=bc0ddf0d
DTITLE=Sean Costello - Sean Costello
DYEAR=2005
DGENRE=Modern Blues, Electric Blues
TTITLE0=No Half Steppin'
TTITLE1=I'Ma Ram
TTITLE2=She Changed My Mind
TTITLE3=Hold On This Time
TTITLE4=Simple Twist Of Fate
TTITLE5=I've Got To Ride
TTITLE6=Take It Easy
TTITLE7=Peace Of Mind
TTITLE8=Father
TTITLE9=All I Can Do
TTITLE10=Big Road Blues
TTITLE11=I Get A Feeling
TTITLE12=Dont Pass Me By
EXTD=
EXTT0=
EXTT1=
EXTT2=
EXTT3=
EXTT4=
EXTT5=
EXTT6=
EXTT7=
EXTT8=
EXTT9=
EXTT10=
EXTT11=
EXTT12=
PLAYORDER=
